<svg preserveAspectRatio="none" width="100%" height="100%" overflow="visible" style="display: block;" viewBox="0 0 35.9943 35.9943" fill="none" xmlns="http://www.w3.org/2000/svg">
<g id="LogoMark" clip-path="url(#clip0_0_8)">
<path id="Vector" d="M25.9959 0H9.99842C4.47644 0 0 4.47644 0 9.99842V25.9959C0 31.5179 4.47644 35.9943 9.99842 35.9943H25.9959C31.5179 35.9943 35.9943 31.5179 35.9943 25.9959V9.99842C35.9943 4.47644 31.5179 0 25.9959 0Z" fill="var(--fill-0, #F0A500)"/>
<path id="Vector_2" opacity="0.15" d="M17.9972 6.99889L26.9957 12.9979V22.9964L17.9972 28.9954L8.99858 22.9964V12.9979L17.9972 6.99889Z" fill="var(--fill-0, #0E0C0B)"/>
<path id="Vector_3" d="M17.9972 9.99842L24.996 14.4977V22.9964L17.9972 26.9957L10.9983 22.9964V14.4977L17.9972 9.99842Z" stroke="var(--stroke-0, #0E0C0B)" stroke-width="1.49976"/>
<path id="Vector_4" opacity="0.8" d="M17.9972 21.9965C20.2059 21.9965 21.9965 20.2059 21.9965 17.9972C21.9965 15.7884 20.2059 13.9978 17.9972 13.9978C15.7884 13.9978 13.9978 15.7884 13.9978 17.9972C13.9978 20.2059 15.7884 21.9965 17.9972 21.9965Z" fill="var(--fill-0, #0E0C0B)"/>
<path id="Vector_5" d="M17.9975 19.9975C19.102 19.9975 19.9975 19.102 19.9975 17.9975C19.9975 16.8929 19.102 15.9975 17.9975 15.9975C16.8929 15.9975 15.9975 16.8929 15.9975 17.9975C15.9975 19.102 16.8929 19.9975 17.9975 19.9975Z" fill="var(--fill-0, #F0A500)"/>
</g>
<defs>
<clipPath id="clip0_0_8">
<rect width="35.9943" height="35.9943" fill="white"/>
</clipPath>
</defs>
</svg>
